<svg width="102" height="42" viewBox="0 0 102 42" fill="none" xmlns="http://www.w3.org/2000/svg">
<path d="M17.0382 26.8801C15.6757 28.6506 13.5618 29.7878 11.1805 29.7878H11.1551C8.76107 29.7878 6.63448 28.6247 5.28467 26.8413L11.1678 20.8967L17.0382 26.8801Z" fill="#FD7114"/>
<path fill-rule="evenodd" clip-rule="evenodd" d="M52.0571 3.28245C52.0571 4.01907 52.3245 4.66522 52.8466 5.19507C53.3815 5.72491 54.0054 5.9963 54.7313 5.9963C55.4571 5.9963 56.0938 5.72491 56.6159 5.19507C57.138 4.66522 57.4054 4.01907 57.4054 3.28245C57.4054 2.54583 57.138 1.89968 56.6159 1.36983C56.0938 0.839988 55.4571 0.568604 54.7313 0.568604C54.0054 0.568604 53.3687 0.839988 52.8466 1.36983C52.3245 1.89968 52.0571 2.54583 52.0571 3.28245ZM52.6684 30.1237C52.6684 30.7181 52.8594 31.2221 53.2541 31.6228C53.6489 32.0234 54.1455 32.2172 54.7313 32.2172C55.3553 32.2172 55.8519 32.0234 56.2339 31.6228C56.6159 31.2351 56.8069 30.7311 56.8069 30.1237V11.7729C56.8069 11.1397 56.6159 10.6357 56.2339 10.248C55.8519 9.8603 55.3553 9.66645 54.7313 9.66645C54.1455 9.66645 53.6489 9.8603 53.2541 10.248C52.8594 10.6357 52.6684 11.1397 52.6684 11.7729V30.1237Z" fill="white"/>
<path d="M79.3205 30.4855C79.3205 31.0929 79.0785 31.5969 78.5946 32.0105C78.1872 32.3465 77.7542 32.5015 77.2958 32.5015C76.6973 32.5015 76.2134 32.256 75.8313 31.7649L68.1145 22.0726L66.077 23.8818V30.1883C66.077 30.7957 65.8988 31.2868 65.5295 31.6486C65.1602 32.0234 64.6763 32.2043 64.0905 32.2043C63.492 32.2043 63.0081 32.0234 62.6516 31.6486C62.2823 31.2738 62.104 30.7957 62.104 30.1883V2.016C62.104 1.40862 62.2823 0.917538 62.6516 0.555692C63.0209 0.180923 63.492 0 64.0905 0C64.689 0 65.1729 0.180923 65.5295 0.555692C65.8988 0.930462 66.077 1.42154 66.077 2.016V18.8031L75.946 9.86031C76.3025 9.49846 76.7227 9.33046 77.2066 9.33046C77.7797 9.33046 78.2381 9.55015 78.5946 9.98954C78.9512 10.3514 79.1167 10.7778 79.1167 11.2689C79.1167 11.8505 78.9003 12.3157 78.4673 12.6775L70.9924 19.4363L78.8748 29.2578C79.1677 29.5809 79.3205 29.9945 79.3205 30.4855Z" fill="white"/>
<path fill-rule="evenodd" clip-rule="evenodd" d="M96.5751 10.9718C98.2687 11.941 99.5931 13.2979 100.561 15.0296C101.516 16.7613 102 18.7386 102 20.9742C102 23.1712 101.516 25.1355 100.574 26.8672C99.6313 28.5989 98.307 29.9558 96.6133 30.925C94.9197 31.8942 92.9841 32.3853 90.8193 32.3853C88.6545 32.3853 86.7189 31.9072 85.0126 30.925C83.3062 29.9558 81.9691 28.5989 81.0268 26.8672C80.0717 25.1355 79.6006 23.1712 79.6006 20.9742C79.6006 18.7386 80.0845 16.7613 81.0268 15.0296C81.9819 13.2979 83.3062 11.9539 85.0126 10.9718C86.7189 10.0026 88.6545 9.51147 90.8193 9.51147C92.9586 9.51147 94.8815 10.0026 96.5751 10.9718ZM82.9369 20.9355C82.9369 25.3552 86.4643 28.9219 90.8066 28.9219C95.1489 28.9219 98.6635 25.3552 98.6762 20.9355C98.6762 16.5158 95.1489 12.949 90.8066 12.949C86.4515 12.949 82.9369 16.5287 82.9369 20.9355Z" fill="white"/>
<path fill-rule="evenodd" clip-rule="evenodd" d="M43.0922 10.9718C44.7858 11.941 46.1102 13.2979 47.078 15.0296C48.033 16.7613 48.5169 18.7386 48.5042 20.9742C48.5042 23.1712 48.0203 25.1355 47.078 26.8672C46.1357 28.5989 44.8113 29.9558 43.1177 30.925C41.424 31.8942 39.4885 32.3853 37.3237 32.3853C35.1589 32.3853 33.2233 31.9072 31.5169 30.925C31.0712 30.6795 30.651 30.3952 30.2563 30.085V39.7773C30.2563 40.4106 30.0652 40.9146 29.6832 41.3022C29.3012 41.6899 28.8046 41.8838 28.1806 41.8838C27.5948 41.8838 27.0982 41.6899 26.7034 41.3022C26.3087 40.9146 26.1177 40.4106 26.1177 39.7773V20.9742C26.1177 18.7386 26.6016 16.7613 27.5439 15.0296C28.4989 13.2979 29.8233 11.9539 31.5297 10.9718C32.9941 10.1318 34.6495 9.65363 36.4705 9.53732H36.5342H36.5724C36.8016 9.5244 37.0563 9.51147 37.2982 9.51147H37.3364C39.4757 9.51147 41.3986 10.0026 43.0922 10.9718ZM29.454 20.9355C29.454 25.3552 32.9813 28.9219 37.3237 28.9219C41.666 28.9219 45.1933 25.3552 45.1933 20.9355C45.1933 16.5158 41.666 12.949 37.3237 12.949C32.9686 12.949 29.454 16.5287 29.454 20.9355Z" fill="white"/>
<path fill-rule="evenodd" clip-rule="evenodd" d="M16.8854 11.0106C18.579 12.0186 19.9161 13.3884 20.9094 15.133C21.9026 16.8776 22.3865 18.8161 22.3738 20.9613V30.1626C22.3738 30.757 22.1828 31.261 21.788 31.6616C21.406 32.0622 20.9094 32.2561 20.3109 32.2561C19.7251 32.2561 19.2285 32.0622 18.8337 31.6616C18.439 31.2739 18.2479 30.7699 18.2479 30.1626V30.085C17.8659 30.3952 17.4457 30.6666 17.0127 30.925C15.3191 31.8942 13.3835 32.3853 11.2187 32.3853C9.05393 32.3853 7.11835 31.9072 5.41198 30.925C3.70562 29.9558 2.36854 28.5989 1.42622 26.8672C1.41985 26.8607 1.41667 26.851 1.41348 26.8413C1.4103 26.8316 1.40712 26.8219 1.40075 26.8155L1.36255 26.8026C0.993258 26.0789 0.700375 25.3293 0.483895 24.5539C0.464794 24.4764 0.445693 24.4021 0.426592 24.3278C0.407491 24.2535 0.38839 24.1792 0.369288 24.1016C0.362921 24.0693 0.356554 24.0402 0.350187 24.0112C0.34382 23.9821 0.337453 23.953 0.331086 23.9207C0.28015 23.7269 0.241949 23.5201 0.203747 23.3133L0.203745 23.3133C0.203745 23.3004 0.200562 23.2875 0.197378 23.2746C0.194195 23.2616 0.191011 23.2487 0.191011 23.2358C0.152809 23.0032 0.114607 22.7706 0.0891386 22.5379V22.5121C0.0636704 22.2666 0.0382022 22.021 0.0254682 21.7626V21.7496C0.0127341 21.4912 0 21.2198 0 20.9613C0 18.8161 0.483895 16.8776 1.46442 15.133C2.44494 13.3884 3.79476 12.0186 5.51386 11.0106C7.23296 10.0155 9.13034 9.51147 11.2187 9.51147C13.3071 9.51147 15.1918 10.0026 16.8854 11.0106ZM3.3236 20.9355C3.3236 25.3552 6.85094 28.9219 11.1933 28.9219C15.5356 28.9219 19.0629 25.3552 19.0629 20.9355C19.0629 16.5158 15.5483 12.949 11.1933 12.949C6.8382 12.949 3.3236 16.5287 3.3236 20.9355Z" fill="white"/>
</svg>
