<svg width="102" height="42" viewBox="0 0 102 42" fill="none" xmlns="http://www.w3.org/2000/svg">
<path fill-rule="evenodd" clip-rule="evenodd" d="M52.0566 3.28246C52.0566 4.01908 52.3241 4.66523 52.8462 5.19508C53.381 5.72493 54.005 5.99631 54.7308 5.99631C55.4566 5.99631 56.0933 5.72493 56.6154 5.19508C57.1375 4.66523 57.405 4.01908 57.405 3.28246C57.405 2.54585 57.1375 1.8997 56.6154 1.36985C56.0933 0.840003 55.4566 0.568619 54.7308 0.568619C54.005 0.568619 53.3683 0.840003 52.8462 1.36985C52.3241 1.8997 52.0566 2.54585 52.0566 3.28246ZM52.6679 30.1237C52.6679 30.7182 52.8589 31.2222 53.2536 31.6228C53.6484 32.0234 54.145 32.2172 54.7308 32.2172C55.3548 32.2172 55.8514 32.0234 56.2334 31.6228C56.6154 31.2351 56.8065 30.7311 56.8065 30.1237V11.7729C56.8065 11.1397 56.6154 10.6357 56.2334 10.248C55.8514 9.86031 55.3548 9.66646 54.7308 9.66646C54.145 9.66646 53.6484 9.86031 53.2536 10.248C52.8589 10.6357 52.6679 11.1397 52.6679 11.7729V30.1237Z" fill="white"/>
<path d="M79.32 30.4855C79.32 31.0929 79.078 31.5969 78.5942 32.0105C78.1867 32.3465 77.7537 32.5015 77.2953 32.5015C76.6968 32.5015 76.2129 32.256 75.8309 31.7649L68.114 22.0726L66.0765 23.8818V30.1883C66.0765 30.7957 65.8983 31.2868 65.529 31.6486C65.1597 32.0234 64.6758 32.2043 64.09 32.2043C63.4915 32.2043 63.0076 32.0234 62.6511 31.6486C62.2818 31.2738 62.1035 30.7957 62.1035 30.1883V2.016C62.1035 1.40862 62.2818 0.917538 62.6511 0.555692C63.0204 0.180923 63.4915 0 64.09 0C64.6885 0 65.1724 0.180923 65.529 0.555692C65.8983 0.930462 66.0765 1.42154 66.0765 2.016V18.8031L75.9455 9.86031C76.302 9.49846 76.7222 9.33046 77.2061 9.33046C77.7792 9.33046 78.2376 9.55015 78.5942 9.98954C78.9507 10.3514 79.1162 10.7778 79.1162 11.2689C79.1162 11.8505 78.8998 12.3157 78.4668 12.6775L70.9919 19.4363L78.8743 29.2578C79.1672 29.5809 79.32 29.9945 79.32 30.4855Z" fill="white"/>
<path fill-rule="evenodd" clip-rule="evenodd" d="M96.5761 10.9717C98.2697 11.9409 99.5941 13.2978 100.562 15.0295C101.517 16.7612 102.001 18.7385 102.001 20.9742C102.001 23.1711 101.517 25.1354 100.575 26.8671C99.6323 28.5988 98.3079 29.9557 96.6143 30.9249C94.9207 31.8942 92.9851 32.3852 90.8203 32.3852C88.6555 32.3852 86.7199 31.9071 85.0135 30.9249C83.3072 29.9557 81.9701 28.5988 81.0278 26.8671C80.0727 25.1354 79.6016 23.1711 79.6016 20.9742C79.6016 18.7385 80.0855 16.7612 81.0278 15.0295C81.9828 13.2978 83.3072 11.9538 85.0135 10.9717C86.7199 10.0025 88.6555 9.51138 90.8203 9.51138C92.9596 9.51138 94.8825 10.0025 96.5761 10.9717ZM82.9379 20.9354C82.9379 25.3551 86.4652 28.9218 90.8076 28.9218C95.1499 28.9218 98.6645 25.3551 98.6772 20.9354C98.6772 16.5157 95.1499 12.9489 90.8076 12.9489C86.4525 12.9489 82.9379 16.5286 82.9379 20.9354Z" fill="white"/>
<path fill-rule="evenodd" clip-rule="evenodd" d="M43.0917 10.9717C44.7854 11.9409 46.1097 13.2978 47.0775 15.0295C48.0325 16.7612 48.5164 18.7385 48.5037 20.9742C48.5037 23.1711 48.0198 25.1354 47.0775 26.8671C46.1352 28.5988 44.8108 29.9557 43.1172 30.9249C41.4236 31.8942 39.488 32.3852 37.3232 32.3852C35.1584 32.3852 33.2228 31.9071 31.5164 30.9249C31.0707 30.6794 30.6505 30.3951 30.2558 30.0849V39.7772C30.2558 40.4105 30.0648 40.9145 29.6827 41.3022C29.3007 41.6898 28.8041 41.8837 28.1801 41.8837C27.5943 41.8837 27.0977 41.6898 26.703 41.3022C26.3082 40.9145 26.1172 40.4105 26.1172 39.7772V20.9742C26.1172 18.7385 26.6011 16.7612 27.5434 15.0295C28.4985 13.2978 29.8228 11.9538 31.5292 10.9717C32.9936 10.1317 34.649 9.65354 36.47 9.53723H36.5337H36.5719C36.8011 9.52431 37.0558 9.51138 37.2977 9.51138H37.3359C39.4752 9.51138 41.3981 10.0025 43.0917 10.9717ZM29.4535 20.9354C29.4535 25.3551 32.9809 28.9218 37.3232 28.9218C41.6655 28.9218 45.1928 25.3551 45.1928 20.9354C45.1928 16.5157 41.6655 12.9489 37.3232 12.9489C32.9681 12.9489 29.4535 16.5286 29.4535 20.9354Z" fill="white"/>
<path fill-rule="evenodd" clip-rule="evenodd" d="M16.8854 11.0105C18.579 12.0185 19.9161 13.3883 20.9094 15.1329C21.9026 16.8775 22.3865 18.816 22.3738 20.9612V30.1625C22.3738 30.7569 22.1828 31.2609 21.788 31.6615C21.406 32.0622 20.9094 32.256 20.3109 32.256C19.7251 32.256 19.2285 32.0622 18.8337 31.6615C18.439 31.2738 18.2479 30.7698 18.2479 30.1625V30.0849C17.8659 30.3951 17.4457 30.6665 17.0127 30.9249C15.3191 31.8942 13.3835 32.3852 11.2187 32.3852C9.05393 32.3852 7.11835 31.9071 5.41198 30.9249C3.70562 29.9557 2.36854 28.5988 1.42622 26.8671C1.41985 26.8606 1.41667 26.8509 1.41348 26.8412C1.4103 26.8315 1.40712 26.8218 1.40075 26.8154L1.36255 26.8025C0.993258 26.0788 0.700375 25.3292 0.483895 24.5538C0.464794 24.4763 0.445693 24.402 0.426592 24.3277C0.407491 24.2534 0.38839 24.1791 0.369288 24.1015C0.362921 24.0692 0.356554 24.0402 0.350187 24.0111C0.34382 23.982 0.337453 23.9529 0.331086 23.9206C0.28015 23.7268 0.241949 23.52 0.203747 23.3132L0.203745 23.3132C0.203745 23.3003 0.200562 23.2874 0.197378 23.2745C0.194195 23.2615 0.191011 23.2486 0.191011 23.2357C0.152809 23.0031 0.114607 22.7705 0.0891386 22.5378V22.512C0.0636704 22.2665 0.0382022 22.0209 0.0254682 21.7625V21.7495C0.0127341 21.4911 0 21.2197 0 20.9612C0 18.816 0.483895 16.8775 1.46442 15.1329C2.44494 13.3883 3.79476 12.0185 5.51386 11.0105C7.23296 10.0154 9.13034 9.51138 11.2187 9.51138C13.3071 9.51138 15.1918 10.0025 16.8854 11.0105ZM3.3236 20.9354C3.3236 25.3551 6.85094 28.9218 11.1933 28.9218C15.5356 28.9218 19.0629 25.3551 19.0629 20.9354C19.0629 16.5157 15.5483 12.9489 11.1933 12.9489C6.8382 12.9489 3.3236 16.5286 3.3236 20.9354Z" fill="white"/>
</svg>
